# xmcd
#
# Track frame offsets: 
#        150
#        14037
#        36407
#        58290
#        75462
#        90607
#        102337
#        120785
#        135390
#        167062
#        185490
#        205065
#
# Disc length: 2785 seconds
#
# Revision: 22
# Processed by: cddbd v1.5.1PL2 Copyright (c) Steve Scherf et al.
# Submitted via: ExactAudioCopy v0.95b4
#
DISCID=9b0adf0c
DTITLE=Bloodhound Gang - One Fierce Beer Coaster
DYEAR=1996
DGENRE=Rock
TTITLE0=Kiss Me Where It Smells Funny
TTITLE1=Lift Your Head Up High (And Blow Your Brains Out)
TTITLE2=Fire Water Burn
TTITLE3=I Wish I Was Queer So I Could Get Chicks
TTITLE4=Why's Everybody Always Pickin' On Me?
TTITLE5=It's Tricky
TTITLE6=Asleep At The Wheel
TTITLE7=Shut Up
TTITLE8=Your Only Friends Are Make Believe
TTITLE9=Boom
TTITLE10=Going Nowhere Slow
TTITLE11=Reflections Of Remoh
EXTD=Columbia House Version YEAR: 1996 ID3G:  17
EXTT0=
EXTT1=
EXTT2=
EXTT3=
EXTT4=
EXTT5=
EXTT6=
EXTT7=
EXTT8=
EXTT9=
EXTT10=
EXTT11=
PLAYORDER=
